<svg viewBox="0 0 22 18" xmlns="http://www.w3.org/2000/svg">
  <path d="M 19.004 6.502 L 19.004 5.75 C 19.004 4.507 17.997 3.5 16.754 3.5 L 11.029 3.5 L 8.648 1.52 C 8.244 1.184 7.735 1 7.209 1 L 3.254 1 C 2.011 1 1.004 2.007 1.004 3.249 L 1 14.749 C 0.999 15.992 2.007 17 3.25 17 L 3.276 17 C 3.28 17 3.284 17 3.288 17 L 17.473 17 C 18.276 17 18.976 16.454 19.171 15.675 L 20.921 8.677 C 21.197 7.572 20.362 6.502 19.223 6.502 L 19.004 6.502 Z M 3.254 2.5 L 7.209 2.5 C 7.384 2.5 7.554 2.561 7.689 2.673 L 10.278 4.827 C 10.413 4.939 10.583 5 10.758 5 L 16.754 5 C 17.168 5 17.504 5.336 17.504 5.75 L 17.504 6.502 L 5.428 6.502 C 4.396 6.502 3.496 7.205 3.245 8.207 L 2.501 11.184 L 2.504 3.25 C 2.504 2.836 2.84 2.5 3.254 2.5 Z M 4.7 8.57 C 4.784 8.236 5.084 8.002 5.428 8.002 L 19.223 8.002 C 19.386 8.002 19.505 8.155 19.466 8.313 L 17.716 15.311 C 17.688 15.422 17.588 15.5 17.473 15.5 L 3.288 15.5 C 3.126 15.5 3.006 15.347 3.046 15.19 L 4.7 8.57 Z" style="fill: rgb(51, 183, 125);"></path>
</svg>